<?xml version="1.0" encoding="utf-8"?>
<!-- Generator: Adobe Illustrator 12.0.0, SVG Export Plug-In  -->
<!DOCTYPE svg PUBLIC "-//W3C//DTD SVG 1.1//EN" "http://www.w3.org/Graphics/SVG/1.1/DTD/svg11.dtd" [
	<!ENTITY ns_flows "http://ns.adobe.com/Flows/1.0/">
	<!ENTITY ns_svg "http://www.w3.org/2000/svg">
	<!ENTITY ns_xlink "http://www.w3.org/1999/xlink">
]>
<svg  version="1.1" xmlns="&ns_svg;" xmlns:xlink="&ns_xlink;" xmlns:a="http://ns.adobe.com/AdobeSVGViewerExtensions/3.0/"
	 width="501" height="271" viewBox="-0.3779297 -0.4921875 501 271" enable-background="new -0.3779297 -0.4921875 501 271"
	 xml:space="preserve">
<defs>
</defs>
<polygon opacity="0" fill-rule="evenodd" clip-rule="evenodd" fill="#FFFFFF" points="0,0 500,0 500,269.7714844 0,269.7714844 0,0 
	"/>
<polygon fill-rule="evenodd" clip-rule="evenodd" fill="#075590" points="434.2167969,82.7978516 466.6640625,82.7978516 
	466.6640625,242.1621094 434.2167969,242.1621094 434.2167969,82.7978516 "/>
<path fill-rule="evenodd" clip-rule="evenodd" fill="#075590" d="M450.2333984,68.0117188
	c11.0898438,0,19.7158203-9.0356445,19.7158203-20.1259766s-8.6259766-20.1259766-19.7158203-20.1259766
	c-10.6767578,0-19.7128906,9.0356445-19.7128906,20.1259766S439.5566406,68.0117188,450.2333984,68.0117188L450.2333984,68.0117188z
	"/>
<path fill-rule="evenodd" clip-rule="evenodd" fill="#075590" d="M282.2441406,242.1621094v-94.0556641
	c0-27.9306641-12.3232422-38.1987305-30.8066406-38.1987305c-21.7685547,0-30.8056641,15.6079102-30.8056641,47.6469727v84.6074219
	h-32.4487305v-92.4140625c0-41.0727539,21.3598633-70.2358398,64.4868164-70.2358398
	c20.5361328,0,36.1455078,9.0356445,45.5917969,19.715332c9.4462891-10.6796875,25.0556641-19.715332,45.1816406-19.715332
	c43.5400391,0,64.8964844,29.1630859,64.8964844,70.2358398v92.4140625H375.890625v-84.6074219
	c0-32.0390625-9.0361328-47.6469727-30.8037109-47.6469727c-18.484375,0-30.8056641,10.2680664-30.8056641,38.1987305v94.0556641
	H282.2441406L282.2441406,242.1621094z"/>
<path fill-rule="evenodd" clip-rule="evenodd" fill="#075590" d="M30.0498047,30.2231445h32.0380859v64.0751953
	C66.6054688,90.190918,80.5708008,79.512207,99.4643555,79.512207c36.9677734,0,67.3618164,25.4658203,67.3618164,83.7875977
	c0,53.8095703-23.4111328,82.1503906-69.8266602,82.1503906c-27.5185547,0-48.4667969-13.5517578-59.5556641-41.4824219
	c-6.9824219-16.8408203-7.394043-41.8984375-7.394043-61.2011719V30.2231445L30.0498047,30.2231445z M99.8759766,109.4960938
	c-20.1269531,0-36.5556641,18.0712891-36.5556641,52.1630859c0,37.7890625,15.6079102,55.4501953,35.7338867,55.4501953
	c20.9477539,0,36.1445313-16.0195313,36.1445313-52.9833984
	C135.1987305,126.3364258,119.5917969,109.4960938,99.8759766,109.4960938L99.8759766,109.4960938z"/>
</svg>
