<?xml version="1.0" encoding="UTF-8" standalone="no"?>
<svg
   xmlns:dc="http://purl.org/dc/elements/1.1/"
   xmlns:cc="http://creativecommons.org/ns#"
   xmlns:rdf="http://www.w3.org/1999/02/22-rdf-syntax-ns#"
   xmlns:svg="http://www.w3.org/2000/svg"
   xmlns="http://www.w3.org/2000/svg"
   version="1.1"
   id="Layer_1"
   x="0px"
   y="0px"
   width="134.555px"
   height="141.731px"
   viewBox="0 0 134.555 141.731"
   enable-background="new 0 0 134.555 141.731"
   xml:space="preserve">
<path
   id="path6"
   style="fill:#910001;fill-opacity:1"
   d="m 37.36,107.382 -0.002,-0.005 c 0.002,0.005 0.002,0.005 0.006,0.005 V 33.625 c -0.003,10e-4 0,-0.004 -0.003,10e-4 l 0.003,-0.005 c 0,0 -2.044,1.773 -12.727,-8.268 0.243,-0.571 0.378,-1.199 0.378,-1.858 0,-2.623 -2.126,-4.749 -4.748,-4.749 -2.623,0 -4.749,2.126 -4.749,4.749 0,2.623 2.126,4.749 4.749,4.749 0.615,0 1.201,-0.121 1.741,-0.334 8.379,9.957 5.838,15.964 5.051,17.338 0,0 0.019,-0.033 -0.194,0.311 v 49.89 c 0,0 0.352,0.561 0.195,0.313 0.789,1.382 3.309,7.389 -5.058,17.335 -0.538,-0.212 -1.122,-0.332 -1.735,-0.332 -2.623,0 -4.749,2.126 -4.749,4.748 0,2.623 2.126,4.749 4.749,4.749 2.622,0 4.748,-2.126 4.748,-4.749 0,-0.659 -0.135,-1.287 -0.378,-1.857 10.683,-10.044 12.723,-8.274 12.723,-8.274 z M 23.213,88.232 V 52.775 c 10e-4,-0.002 0.002,-0.004 0.003,-0.006 L 9.492,47.813 C 9.434,45.241 7.336,43.171 4.749,43.171 2.126,43.171 0,45.297 0,47.919 c 0,2.623 2.126,4.749 4.749,4.749 1.336,0 2.54,-0.553 3.403,-1.44 10.847,5.419 11.784,13.425 11.727,16.396 10e-4,-0.004 10e-4,-0.007 10e-4,-0.011 -0.058,0.956 -0.09,1.919 -0.09,2.89 0,1.118 0.04,2.226 0.116,3.323 C 19.848,77.068 18.51,84.508 8.34,89.67 7.485,88.842 6.321,88.329 5.036,88.329 c -2.622,0 -4.748,2.126 -4.748,4.749 0,2.622 2.126,4.748 4.748,4.748 2.623,0 4.748,-2.125 4.749,-4.747 l 13.428,-4.847 c 0,-0.001 0,-0.001 0,0 z M 45.909,12.217 c 0.935,-0.867 1.521,-2.103 1.521,-3.477 0,-2.623 -2.126,-4.749 -4.748,-4.749 -2.623,0 -4.749,2.126 -4.749,4.749 0,2.578 2.057,4.672 4.619,4.742 3.955,12.743 -0.613,16.794 -1.589,17.488 0.079,-0.053 0.162,-0.104 0.242,-0.156 -0.139,0.092 -0.28,0.18 -0.418,0.272 v 78.833 c 0.108,0.073 0.221,0.143 0.33,0.215 -0.071,-0.047 -0.144,-0.092 -0.215,-0.139 0.783,0.553 5.148,4.317 0.88,17.181 -2.599,0.027 -4.697,2.141 -4.697,4.746 0,2.623 2.126,4.749 4.749,4.749 2.622,0 4.748,-2.126 4.748,-4.749 0,-1.347 -0.563,-2.56 -1.463,-3.424 5.667,-13.45 6.16,-13.272 6.16,-13.272 l -0.001,-0.002 c 0.007,0.002 0.007,0.002 0.007,0.002 V 25.78 c 0.008,-0.003 0.014,-0.005 0.021,-0.008 z" /><path
   id="path12"
   d="M 65.324,132.558 V 23.061 c -1.152,0.047 -2.294,0.135 -3.424,0.262 v 109.235 c -1.775,0.688 -3.037,2.407 -3.037,4.426 0,2.622 2.126,4.748 4.749,4.748 2.623,0 4.749,-2.126 4.749,-4.748 0,-2.019 -1.261,-3.739 -3.037,-4.426 z m -10.5,-16.222 c 1.125,0.305 2.267,0.569 3.423,0.792 V 23.879 c -1.156,0.223 -2.298,0.486 -3.423,0.792 z"
   style="font-variation-settings:normal;opacity:1;vector-effect:none;fill:#368647;fill-opacity:1;stroke-width:1;stroke-linecap:butt;stroke-linejoin:miter;stroke-miterlimit:4;stroke-dasharray:none;stroke-dashoffset:0;stroke-opacity:1;stop-color:#000000;stop-opacity:1" /><path
   id="path18"
   d="m 129.802,88.339 c -1.348,0 -2.562,0.564 -3.427,1.467 -10.676,-5.252 -11.741,-13.174 -11.71,-16.309 0.062,-0.99 0.097,-1.987 0.097,-2.994 0,-1.131 -0.041,-2.254 -0.119,-3.365 0.057,-3.238 1.4,-10.732 11.761,-15.899 0.862,0.888 2.067,1.44 3.402,1.44 2.623,0 4.749,-2.126 4.749,-4.749 0,-2.623 -2.126,-4.749 -4.749,-4.749 -2.587,0 -4.686,2.068 -4.743,4.642 l -13.724,4.954 c 0,0 0.001,10e-4 0.001,0.002 -0.001,-0.002 -0.001,-0.003 -0.002,-0.004 v 35.458 c 0,0.002 -10e-4,0.004 -0.002,0.006 l 13.723,4.956 c 0.058,2.573 2.156,4.643 4.743,4.643 2.623,0 4.749,-2.126 4.749,-4.749 0,-2.623 -2.126,-4.75 -4.749,-4.75 z m -25.54,11.943 c 1.238,-1.536 2.383,-3.15 3.425,-4.834 v -49.89 c -1.042,-1.685 -2.187,-3.298 -3.425,-4.834 z"
   style="font-variation-settings:normal;opacity:1;vector-effect:none;fill:#368647;fill-opacity:1;stroke-width:1;stroke-linecap:butt;stroke-linejoin:miter;stroke-miterlimit:4;stroke-dasharray:none;stroke-dashoffset:0;stroke-opacity:1;stop-color:#000000;stop-opacity:1" /><path
   id="path26"
   d="m 111.842,115.085 c -0.599,0 -1.169,0.115 -1.696,0.317 l -9.789,-10.836 c 0,0 0,0 0.002,-0.002 V 36.442 l 9.789,-10.836 c 0.527,0.202 1.098,0.318 1.696,0.318 2.623,0 4.749,-2.126 4.749,-4.749 0,-2.623 -2.126,-4.749 -4.749,-4.749 -2.622,0 -4.748,2.126 -4.748,4.749 0,0.698 0.154,1.359 0.425,1.957 -9.429,8.737 -15.706,6.577 -17.274,5.804 0.102,0.057 0.201,0.117 0.302,0.175 -0.229,-0.13 -0.456,-0.264 -0.688,-0.39 v 83.563 c 0.237,-0.129 0.469,-0.266 0.704,-0.397 -0.106,0.06 -0.211,0.123 -0.317,0.183 1.568,-0.773 7.844,-2.932 17.272,5.806 -0.271,0.598 -0.426,1.259 -0.426,1.957 0,2.623 2.126,4.749 4.749,4.749 2.623,0 4.749,-2.126 4.749,-4.749 -0.001,-2.622 -2.127,-4.748 -4.75,-4.748 z M 86.435,128.194 V 27.045 c 0.031,0.015 -0.36,-0.162 4.821,-13.803 2.616,-0.007 4.735,-2.13 4.735,-4.748 0,-2.623 -2.126,-4.749 -4.749,-4.749 -2.623,0 -4.749,2.126 -4.749,4.749 0,1.393 0.603,2.641 1.558,3.509 l -5.261,13.61 c 0,0 0,0 -0.006,-0.003 v 102.584 c -1.717,0.716 -2.924,2.408 -2.924,4.384 0,2.623 2.126,4.749 4.749,4.749 2.623,0 4.749,-2.126 4.749,-4.749 0,-1.975 -1.207,-3.668 -2.923,-4.384 z M 79.239,24.538 C 78.387,24.289 73.353,22.267 72.43,9.119 74.129,8.395 75.321,6.711 75.321,4.748 75.321,2.126 73.195,0 70.572,0 c -2.623,0 -4.748,2.126 -4.748,4.748 0,2.019 1.261,3.738 3.036,4.426 V 117.96 c 3.617,-0.119 7.132,-0.641 10.501,-1.524 V 24.571 C 78.972,24.47 78.89,24.448 79.239,24.538 Z"
   style="font-variation-settings:normal;opacity:1;vector-effect:none;fill:#1c4381;fill-opacity:1;stroke-width:1;stroke-linecap:butt;stroke-linejoin:miter;stroke-miterlimit:4;stroke-dasharray:none;stroke-dashoffset:0;stroke-opacity:1;stop-color:#000000;stop-opacity:1" /></svg>
