<?xml version="1.0" standalone="no"?>
<!DOCTYPE svg PUBLIC "-//W3C//DTD SVG 20010904//EN"
 "http://www.w3.org/TR/2001/REC-SVG-20010904/DTD/svg10.dtd">
<svg version="1.0" xmlns="http://www.w3.org/2000/svg"
 width="512.000000pt" height="512.000000pt" viewBox="0 0 512.000000 512.000000"
 preserveAspectRatio="xMidYMid meet">

<g transform="translate(0.000000,512.000000) scale(0.100000,-0.100000)"
fill="#000000" stroke="none">
<path d="M625 5101 c-48 -22 -79 -54 -100 -103 -13 -33 -15 -294 -15 -2438 0
-2613 -4 -2437 53 -2499 48 -52 87 -61 278 -61 163 0 178 2 203 21 19 15 26
30 26 54 0 24 -7 39 -26 54 -25 19 -40 21 -193 21 -117 0 -171 4 -179 12 -9 9
-12 456 -12 1950 l0 1938 1900 0 1900 0 0 -1938 c0 -1494 -3 -1941 -12 -1950
-9 -9 -371 -12 -1569 -12 l-1556 0 -27 -21 c-36 -28 -36 -80 0 -108 l27 -21
1564 0 c1389 0 1568 2 1601 15 49 21 81 52 103 100 18 38 19 120 19 2146 l0
2106 -23 21 c-31 29 -72 28 -102 -3 -22 -22 -25 -32 -25 -105 l0 -80 -1900 0
-1900 0 0 373 c0 277 3 376 12 385 17 17 3759 17 3776 0 8 -8 12 -56 12 -149
0 -123 2 -139 21 -163 26 -33 79 -36 109 -6 18 18 20 33 20 173 0 165 -11 208
-61 254 -62 56 67 53 -1991 53 -1819 0 -1895 -1 -1933 -19z"/>
<path d="M900 4790 c-30 -30 -27 -83 6 -109 25 -20 39 -21 230 -21 216 0 244
5 263 47 16 34 14 47 -10 77 l-20 26 -225 0 c-211 0 -225 -1 -244 -20z"/>
<path d="M900 4490 c-25 -25 -26 -71 -1 -101 19 -24 20 -24 241 -24 l222 0 24
28 c29 34 30 56 3 91 l-20 26 -225 0 c-211 0 -225 -1 -244 -20z"/>
<path d="M2415 3689 c-225 -22 -449 -101 -638 -226 -92 -61 -107 -95 -66 -147
31 -39 63 -33 159 29 369 240 844 265 1240 65 117 -59 204 -123 311 -230 249
-247 369 -533 369 -879 0 -112 -13 -248 -26 -260 -2 -2 -38 6 -79 19 -60 19
-74 27 -69 39 14 32 17 292 4 369 -55 344 -275 644 -585 800 -163 82 -301 114
-490 114 -284 0 -534 -99 -740 -294 -494 -467 -449 -1245 95 -1660 80 -61 259
-150 360 -177 41 -12 125 -26 186 -33 107 -11 188 -7 335 18 l36 6 22 -72 c12
-40 20 -74 18 -76 -17 -17 -171 -37 -297 -38 -221 -1 -392 38 -580 135 -678
348 -888 1217 -443 1836 69 97 73 114 35 153 -56 55 -90 36 -182 -101 -106
-160 -178 -334 -217 -526 -26 -132 -24 -395 5 -530 58 -270 174 -490 361 -685
337 -352 811 -503 1283 -407 545 110 970 531 1094 1084 25 112 30 382 9 507
-33 198 -101 374 -209 536 -128 195 -270 331 -467 447 -175 104 -373 166 -589
185 -126 11 -129 11 -245 -1z m328 -475 c358 -73 648 -368 722 -733 24 -114
16 -324 -15 -431 -149 -520 -696 -809 -1203 -636 -120 41 -238 111 -329 196
-493 454 -371 1249 233 1534 190 90 383 112 592 70z m977 -1336 c0 -21 -91
-201 -134 -266 -92 -139 -216 -261 -356 -354 -73 -48 -218 -124 -225 -117 -5
7 -47 151 -43 153 2 1 23 11 48 22 63 27 205 122 269 180 106 96 219 257 270
386 l23 56 74 -25 c41 -14 74 -30 74 -35z"/>
<path d="M2593 2881 c-68 -32 -107 -116 -86 -186 l10 -32 -126 -7 c-78 -4
-133 -12 -146 -20 -27 -18 -155 -237 -155 -265 0 -30 43 -71 75 -71 34 0 61
29 115 122 40 68 49 77 80 82 50 8 140 7 140 -2 0 -4 -38 -93 -84 -197 l-84
-190 -170 -15 c-139 -12 -174 -18 -191 -34 -29 -27 -28 -76 4 -106 l25 -23
202 17 c127 10 210 22 223 30 12 8 40 59 65 115 24 55 45 101 48 101 3 0 38
-25 78 -56 l73 -56 52 -155 c47 -143 54 -156 82 -168 42 -17 81 -3 98 37 11
28 8 43 -30 162 -71 217 -68 211 -186 301 -58 44 -105 82 -105 85 1 3 13 31
28 63 l27 57 75 -50 c111 -76 105 -75 222 -34 57 20 113 45 126 57 25 24 29
63 7 94 -24 35 -57 36 -143 4 l-80 -29 -61 40 -61 40 30 28 c133 124 -12 338
-177 261z"/>
</g>
</svg>
